<svg width="190" height="31" viewBox="0 0 190 31" fill="none" xmlns="http://www.w3.org/2000/svg">
<g clip-path="url(#clip0_2628_906)">
<path d="M38.0392 13.4914H33.8389V13.1715C34.0424 13.1141 34.1889 13.0567 34.3029 12.9337C34.4168 12.8189 34.4738 12.6712 34.4738 12.4908V1.35313C34.4738 1.14809 34.4168 1.00046 34.3273 0.910242C34.2377 0.795421 34.0668 0.729809 33.8633 0.672398V0.352539H38.0636V0.672398C37.6241 0.787219 37.4206 0.992257 37.4206 1.34492V12.4908C37.4206 12.8435 37.6241 13.0813 38.0636 13.1633V13.4832H38.0392V13.4914Z" fill="black"/>
<path d="M42.589 12.4992C42.589 12.8518 42.7925 13.0897 43.2321 13.2373V13.4997H39.5527V13.2373C39.9597 13.1225 40.1632 12.8846 40.1632 12.4992V3.70713C40.1632 3.32166 39.9597 3.09201 39.5527 3.0018V2.73115H43.81V2.9936C43.6635 3.0264 43.5496 3.05101 43.4926 3.10842C43.403 3.16583 43.3786 3.25604 43.3786 3.37087C43.3786 3.48569 43.4112 3.5513 43.4356 3.60871C43.4682 3.66612 43.5496 3.75634 43.6961 3.90396L49.6221 9.60402V3.67432C49.6221 3.28885 49.4186 3.05921 49.0116 2.96899V2.70654H52.691V2.96899C52.2514 3.08381 52.0479 3.32166 52.0479 3.67432V12.4663C52.0479 12.819 52.2514 13.0569 52.691 13.2045V13.4669H48.6941V13.2045C48.7837 13.2045 48.8651 13.1717 48.9872 13.1143C49.0767 13.0569 49.1337 12.9994 49.1337 12.8764C49.1337 12.696 49.0442 12.5238 48.8407 12.3433C48.6372 12.1629 48.5232 12.0481 48.4581 12.0235L42.589 6.38082V12.4992Z" fill="black"/>
<path d="M60.9702 12.4991C60.9702 12.8518 61.1737 13.0896 61.5808 13.2373V13.4997H57.6735V13.2373C58.0805 13.1224 58.284 12.8846 58.284 12.4991V4.70768H55.0116C54.6616 4.70768 54.4011 4.88812 54.2546 5.26539H53.9941V2.05859H54.2546C54.3116 2.26363 54.4011 2.44406 54.5151 2.55889C54.629 2.67371 54.7756 2.73112 55.0116 2.73112H64.1775C64.5601 2.73112 64.788 2.52608 64.9101 2.0832H65.2031V5.28999H64.9101C64.7961 4.90452 64.5601 4.73229 64.1775 4.73229H60.9051V12.4909H60.9702V12.4991Z" fill="black"/>
<path d="M69.8993 11.5231H76.8999C77.2499 11.5231 77.5104 11.318 77.6569 10.908H77.9174V14.1148H77.6569C77.5429 13.7293 77.3069 13.5242 76.8999 13.5242H66.6025V13.2618C67.0095 13.147 67.213 12.9091 67.213 12.5565V3.76442C67.213 3.37895 67.0095 3.14931 66.6025 3.05909V2.70642H76.5824C76.9324 2.70642 77.1929 2.50139 77.3394 2.09131H77.5999V5.2981H77.3638C77.2173 4.91263 76.9813 4.70759 76.6068 4.70759H69.8912V7.05323H74.0752C74.2787 7.05323 74.4578 6.99582 74.5718 6.9056C74.6857 6.81538 74.7753 6.64315 74.8322 6.43811H75.0927V9.55469H74.8078C74.6939 9.14461 74.4578 8.93958 74.0752 8.93958H69.8993V11.5231Z" fill="black"/>
<path d="M82.5985 12.4992C82.5985 12.7042 82.6555 12.8518 82.7451 12.9667C82.8346 13.0815 83.0055 13.1717 83.209 13.2291V13.4916H79.3018V13.2291C79.7088 13.1143 79.9123 12.8765 79.9123 12.491V3.70718C79.9123 3.32171 79.7088 3.09207 79.3018 3.00185V2.7312H86.5384C87.971 2.7312 89.1025 2.93624 89.9491 3.34631C90.7957 3.75639 91.2027 4.60935 91.2027 5.87238C91.2027 6.75814 90.9422 7.46347 90.3887 7.93096C89.8351 8.39845 89.0781 8.75111 88.085 8.95615L90.1852 11.7775C90.5352 12.2203 90.7957 12.573 91.0318 12.778C91.2678 13.0159 91.5283 13.1635 91.8783 13.1881V13.4506H87.2384V13.2045C87.4419 13.1471 87.5885 13.0897 87.6454 13.0241C87.7024 12.9667 87.735 12.8765 87.735 12.7862C87.735 12.6714 87.7024 12.5484 87.678 12.4664C87.6454 12.3762 87.564 12.2613 87.4419 12.1137L85.2278 9.05457H82.5741V12.491H82.5985V12.4992ZM86.5954 7.11901C87.2059 7.11901 87.7024 7.02879 88.0524 6.88117C88.435 6.73354 88.606 6.41368 88.606 5.91339C88.606 5.38029 88.4269 5.06043 88.0524 4.9128C87.7024 4.76517 87.2059 4.70776 86.5628 4.70776H82.566V7.11901H86.5954Z" fill="black"/>
<path d="M109.127 0.647794C108.81 0.705204 108.598 0.795421 108.517 0.967653C108.403 1.11528 108.224 1.46795 107.963 1.93543L103.291 11.7527C103.201 11.9331 103.144 12.1053 103.087 12.2202C103.03 12.3678 102.998 12.4826 102.998 12.5728C102.998 12.7204 103.055 12.8353 103.201 12.9255C103.315 13.0157 103.462 13.0731 103.641 13.0977V13.4176H98.9683V13.0977C99.1393 13.0649 99.2614 13.0075 99.4079 12.9255C99.5218 12.8353 99.5788 12.7204 99.5788 12.54C99.5788 12.3924 99.5463 12.2448 99.4649 12.0725C99.3753 11.8921 99.3183 11.7773 99.2939 11.6871L94.6215 1.86982C94.4749 1.60737 94.3284 1.31212 94.1819 1.04967C94.0109 0.811824 93.7423 0.639592 93.4248 0.582182V0.352539H98.2113V0.672398C98.0078 0.705204 97.8287 0.762615 97.7147 0.852831C97.6008 0.910242 97.5438 1.05787 97.5438 1.2055C97.5438 1.35313 97.5763 1.50075 97.6333 1.64838C97.6903 1.79601 97.7473 1.91083 97.7799 1.96824L101.37 9.66946L104.927 1.96824C104.984 1.85342 105.041 1.7632 105.074 1.64838C105.131 1.53356 105.131 1.38593 105.131 1.2055C105.131 1.05787 105.074 0.943048 104.952 0.852831C104.838 0.762615 104.691 0.705204 104.488 0.672398V0.352539H109.095V0.647794H109.127Z" fill="black"/>
<path d="M113.914 11.5231H120.914C121.264 11.5231 121.525 11.318 121.671 10.908H121.932V14.1148H121.671C121.557 13.7293 121.321 13.5242 120.914 13.5242H110.617V13.2618C111.024 13.147 111.227 12.9091 111.227 12.5565V3.76442C111.227 3.37895 111.024 3.14931 110.617 3.05909V2.70642H120.597C120.947 2.70642 121.207 2.50139 121.354 2.09131H121.614V5.2981H121.354C121.207 4.91263 120.971 4.70759 120.597 4.70759H113.881V7.05323H118.057C118.261 7.05323 118.44 6.99582 118.554 6.9056C118.668 6.81538 118.757 6.64315 118.814 6.43811H119.075V9.55469H118.782C118.668 9.14461 118.432 8.93958 118.049 8.93958H113.873V11.5313H113.914V11.5231Z" fill="black"/>
<path d="M126.376 12.4992C126.376 12.8518 126.58 13.0897 127.019 13.2373V13.4997H123.34V13.2373C123.747 13.1225 123.951 12.8846 123.951 12.4992V3.70713C123.951 3.32166 123.747 3.09201 123.34 3.0018V2.73115H127.573V2.9936C127.426 3.0264 127.312 3.05101 127.256 3.10842C127.166 3.16583 127.142 3.25604 127.142 3.37087C127.142 3.48569 127.174 3.5513 127.199 3.60871C127.231 3.66612 127.312 3.75634 127.459 3.90396L133.385 9.60402V3.67432C133.385 3.28885 133.182 3.05921 132.775 2.96899V2.70654H136.454V2.96899C136.014 3.08381 135.811 3.32166 135.811 3.67432V12.4663C135.811 12.819 136.014 13.0569 136.454 13.2045V13.4669H132.482V13.2045C132.571 13.2045 132.661 13.1717 132.775 13.1143C132.864 13.0569 132.921 12.9994 132.921 12.8764C132.921 12.696 132.832 12.5238 132.628 12.3433C132.425 12.1629 132.311 12.0481 132.245 12.0235L126.376 6.38082V12.4992Z" fill="black"/>
<path d="M144.733 12.4991C144.733 12.8518 144.936 13.0896 145.343 13.2373V13.4997H141.436V13.2373C141.843 13.1224 142.046 12.8846 142.046 12.4991V4.70768H138.782C138.432 4.70768 138.172 4.88812 138.025 5.26539H137.765V2.05859H138.025C138.082 2.26363 138.172 2.44406 138.286 2.55889C138.4 2.67371 138.546 2.73112 138.782 2.73112H148.005C148.388 2.73112 148.616 2.52608 148.738 2.0832H149.031V5.28999H148.738C148.624 4.90452 148.388 4.73229 148.005 4.73229H144.741V12.4991H144.733Z" fill="black"/>
<path d="M162.853 3.0018C162.649 3.05921 162.47 3.14942 162.356 3.26425C162.242 3.37907 162.177 3.52669 162.177 3.73173V9.40718C162.177 11.0557 161.713 12.2039 160.744 12.7862C159.808 13.4013 158.408 13.6966 156.568 13.6966C154.761 13.6966 153.361 13.4013 152.393 12.7862C151.432 12.1711 150.96 11.0475 150.96 9.37437V3.70713C150.96 3.35446 150.756 3.11662 150.349 2.96899V2.70654H154.257V2.96899C153.85 3.08381 153.646 3.35446 153.646 3.70713V8.88228C153.646 9.90747 153.882 10.6456 154.346 11.0557C154.81 11.4658 155.6 11.6708 156.707 11.6708C157.789 11.6708 158.571 11.4658 159.043 11.0557C159.507 10.6456 159.743 9.90747 159.743 8.88228V3.70713C159.743 3.50209 159.686 3.35446 159.597 3.23964C159.507 3.12482 159.336 3.0346 159.133 2.97719V2.70654H162.812V3.0018H162.853Z" fill="black"/>
<path d="M167.525 12.4992C167.525 12.7042 167.582 12.8518 167.672 12.9667C167.761 13.0815 167.932 13.1717 168.136 13.2291V13.4916H164.228V13.2291C164.635 13.1143 164.839 12.8765 164.839 12.491V3.70718C164.839 3.32171 164.635 3.09207 164.228 3.00185V2.7312H171.465C172.898 2.7312 174.037 2.93624 174.876 3.34631C175.722 3.75639 176.129 4.60935 176.129 5.87238C176.129 6.75814 175.869 7.46347 175.315 7.93096C174.762 8.39845 174.005 8.75111 173.012 8.95615L175.112 11.7775C175.462 12.2203 175.722 12.573 175.958 12.778C176.194 13.0159 176.455 13.1635 176.805 13.1881V13.4506H172.165V13.2045C172.368 13.1471 172.515 13.0897 172.572 13.0241C172.629 12.9667 172.661 12.8765 172.661 12.7862C172.661 12.6714 172.629 12.5484 172.605 12.4664C172.572 12.3762 172.491 12.2613 172.368 12.1137L170.146 9.05457H167.492V12.491H167.525V12.4992ZM171.522 7.11901C172.132 7.11901 172.629 7.02879 172.979 6.88117C173.329 6.73354 173.532 6.41368 173.532 5.91339C173.532 5.38029 173.353 5.06043 172.979 4.9128C172.629 4.76517 172.132 4.70776 171.489 4.70776H167.492V7.11901H171.522Z" fill="black"/>
<path d="M181.526 11.5231H188.527C188.877 11.5231 189.137 11.318 189.284 10.908H189.544V14.1148H189.284C189.17 13.7293 188.934 13.5242 188.527 13.5242H178.221V13.2618C178.628 13.147 178.832 12.9091 178.832 12.5565V3.76442C178.832 3.37895 178.628 3.14931 178.221 3.05909V2.70642H188.201C188.551 2.70642 188.812 2.50139 188.958 2.09131H189.219V5.2981H188.958C188.812 4.91263 188.575 4.70759 188.201 4.70759H181.485V7.05323H185.661C185.865 7.05323 186.044 6.99582 186.158 6.9056C186.272 6.81538 186.361 6.64315 186.418 6.43811H186.679V9.55469H186.386C186.272 9.14461 186.036 8.93958 185.653 8.93958H181.477V11.5313H181.526V11.5231Z" fill="black"/>
<path d="M190 18.9949H33.6025V21.0206H190V18.9949Z" fill="#AACF37"/>
<path d="M39.5536 30.6902H38.9105L38.764 30.0176C38.357 30.5179 37.6243 30.8378 36.8103 30.8378C34.6532 30.8378 33.8066 29.5747 33.8066 28.1313C33.8066 26.6878 34.7102 25.4248 36.7859 25.4248C38.3325 25.4248 39.3256 26.2203 39.4396 27.2209H38.2756C38.0721 26.5156 37.429 26.2203 36.7615 26.2203C35.4509 26.2203 34.9218 27.0405 34.9218 28.1641C34.9218 29.5419 35.8009 30.0422 36.7045 30.0422C37.7871 30.0422 38.3081 29.5419 38.4872 28.689H37.0301V27.8934H39.5373V30.6902H39.5536Z" fill="black"/>
<path d="M44.6006 25.5476H47.8404C49.151 25.5476 49.5661 26.1381 49.5661 26.9583C49.5661 27.6308 49.1835 28.0491 48.7195 28.1967C49.33 28.3115 49.4521 28.8692 49.4521 29.5746C49.4521 29.8124 49.4521 30.3947 49.6556 30.6654H48.4916C48.4021 30.5177 48.3776 30.2553 48.3776 29.9026C48.3776 29.1645 48.2881 28.6396 47.4985 28.6396H45.6914V30.6654H44.6087V25.5476H44.6006ZM47.5473 27.8359C48.1334 27.8359 48.4509 27.6554 48.4509 27.0731C48.4509 26.54 48.1009 26.335 47.5473 26.335H45.7077V27.8359H47.5473Z" fill="black"/>
<path d="M54.1484 28.1313C54.1484 26.6878 54.995 25.4248 57.1521 25.4248C59.3093 25.4248 60.1558 26.6878 60.1558 28.1313C60.1558 29.5747 59.3093 30.8378 57.1521 30.8378C54.9868 30.8378 54.1484 29.5747 54.1484 28.1313ZM59.0488 28.1313C59.0488 27.0159 58.3487 26.2203 57.1521 26.2203C55.9555 26.2203 55.2554 26.9831 55.2554 28.1313C55.2554 29.2467 55.9555 30.0422 57.1521 30.0422C58.3487 30.0176 59.0488 29.2467 59.0488 28.1313Z" fill="black"/>
<path d="M64.3564 25.5476H65.5286L66.6601 29.5418L67.9463 25.5476H69.0533L70.3395 29.5418L71.5117 25.5476H72.6187L70.893 30.69H69.729L68.4428 26.7533L67.1567 30.69H65.9926L64.3564 25.5476Z" fill="black"/>
<path d="M78.2272 25.5476H77.1445V30.69H78.2272V25.5476Z" fill="black"/>
<path d="M83.2656 25.5476H84.4948L87.5311 29.3941V25.5476H88.5486V30.69H87.352L84.2913 26.8353V30.69H83.2656V25.5476Z" fill="black"/>
<path d="M99.0575 30.6902H98.4145L98.268 30.0176C97.861 30.5179 97.1283 30.8378 96.3143 30.8378C94.1571 30.8378 93.3105 29.5747 93.3105 28.1313C93.3105 26.6878 94.2141 25.4248 96.2898 25.4248C97.8365 25.4248 98.8297 26.2203 98.9436 27.2209H97.7795C97.576 26.5156 96.9329 26.2203 96.2654 26.2203C94.9549 26.2203 94.4258 27.0405 94.4258 28.1641C94.4258 29.5419 95.305 30.0422 96.2085 30.0422C97.3156 30.0422 97.8121 29.5419 97.9911 28.689H96.534V27.8934H99.0413V30.6902H99.0575Z" fill="black"/>
<path d="M118.554 26.335H116.625V25.5476H121.533V26.335H119.604V30.69H118.521V26.335H118.554Z" fill="black"/>
<path d="M125.758 28.1313C125.758 26.6878 126.604 25.4248 128.762 25.4248C130.919 25.4248 131.765 26.6878 131.765 28.1313C131.765 29.5747 130.919 30.8378 128.762 30.8378C126.604 30.8378 125.758 29.5747 125.758 28.1313ZM130.666 28.1313C130.666 27.0159 129.966 26.2203 128.77 26.2203C127.573 26.2203 126.873 26.9831 126.873 28.1313C126.873 29.2467 127.573 30.0422 128.77 30.0422C129.966 30.0176 130.666 29.2467 130.666 28.1313Z" fill="black"/>
<path d="M141.989 30.6902H141.346L141.2 30.0176C140.793 30.5179 140.06 30.8378 139.246 30.8378C137.089 30.8378 136.242 29.5747 136.242 28.1313C136.242 26.6878 137.146 25.4248 139.222 25.4248C140.768 25.4248 141.761 26.2203 141.875 27.2209H140.711C140.508 26.5156 139.865 26.2203 139.197 26.2203C137.887 26.2203 137.357 27.0405 137.357 28.1641C137.357 29.5419 138.237 30.0422 139.14 30.0422C140.223 30.0422 140.744 29.5419 140.923 28.689H139.466V27.8934H141.973V30.6902H141.989Z" fill="black"/>
<path d="M147.036 25.5476H151.473V26.335H148.119V27.6308H151.359V28.4264H148.119V29.8698H151.53V30.6572H147.036V25.5476Z" fill="black"/>
<path d="M157.716 26.335H155.787V25.5476H160.695V26.335H158.799V30.69H157.716V26.335Z" fill="black"/>
<path d="M165.246 25.5476H166.328V27.5406H169.503V25.5476H170.586V30.69H169.503V28.369H166.328V30.69H165.246V25.5476Z" fill="black"/>
<path d="M175.608 25.5476H180.045V26.335H176.683V27.6308H179.923V28.4264H176.683V29.8698H180.102V30.6572H175.608V25.5476Z" fill="black"/>
<path d="M184.888 25.5476H188.128C189.439 25.5476 189.854 26.1381 189.854 26.9583C189.854 27.6308 189.471 28.0491 189.007 28.1967C189.618 28.3115 189.74 28.8692 189.74 29.5746C189.74 29.8124 189.74 30.3947 189.943 30.6654H188.779C188.69 30.5177 188.665 30.2553 188.665 29.9026C188.665 29.1645 188.576 28.6396 187.786 28.6396H185.979V30.6654H184.896V25.5476H184.888ZM187.835 27.8359C188.421 27.8359 188.738 27.6554 188.738 27.0731C188.738 26.54 188.388 26.335 187.835 26.335H185.995V27.8359H187.835Z" fill="black"/>
<path d="M0.113963 9.03794C4.41198 12.9747 8.1239 17.5593 11.0869 22.6361L18.8771 22.6607C15.3198 15.6238 10.5334 9.31679 4.80271 4.04321L0 8.8575L0.113963 9.03794Z" fill="#AACF37"/>
<path d="M18.771 30.1488L18.8524 0.016403L11.0541 0L10.9727 30.1816V30.1898L18.771 30.2144C18.771 30.1898 18.771 30.1652 18.771 30.1488Z" fill="#0A1D2B"/>
<path d="M29.8423 9.12016L29.9563 8.93972L25.178 4.10083C19.4147 9.3416 14.5957 15.6239 11.0059 22.6444L18.7961 22.669C21.7917 17.6005 25.528 13.0323 29.8423 9.12016Z" fill="#AACF37"/>
</g>
<defs>
<clipPath id="clip0_2628_906">
<rect width="190" height="31" fill="white"/>
</clipPath>
</defs>
</svg>
