<svg width="15" height="16" viewBox="0 0 15 16" fill="none" xmlns="http://www.w3.org/2000/svg">
<path fill-rule="evenodd" clip-rule="evenodd" d="M13.3795 7.1203H8.10173V1.84252C8.10173 1.35609 7.70765 0.962891 7.2221 0.962891C6.73654 0.962891 6.34247 1.35609 6.34247 1.84252V7.1203H1.06469C0.579133 7.1203 0.185059 7.51349 0.185059 7.99993C0.185059 8.48636 0.579133 8.87956 1.06469 8.87956H6.34247V14.1573C6.34247 14.6438 6.73654 15.037 7.2221 15.037C7.70765 15.037 8.10173 14.6438 8.10173 14.1573V8.87956H13.3795C13.8651 8.87956 14.2591 8.48636 14.2591 7.99993C14.2591 7.51349 13.8651 7.1203 13.3795 7.1203Z" fill="white"/>
</svg>
