<svg width="87" height="35" viewBox="0 0 87 35" fill="none" xmlns="http://www.w3.org/2000/svg">
<path d="M7.59 1.545V2.655H4.74V12H3.375V2.655H0.51V1.545H7.59ZM16.7702 7.575C16.7702 7.835 16.7552 8.11 16.7252 8.4H10.1552C10.2052 9.21 10.4802 9.845 10.9802 10.305C11.4902 10.755 12.1052 10.98 12.8252 10.98C13.4152 10.98 13.9052 10.845 14.2952 10.575C14.6952 10.295 14.9752 9.925 15.1352 9.465H16.6052C16.3852 10.255 15.9452 10.9 15.2852 11.4C14.6252 11.89 13.8052 12.135 12.8252 12.135C12.0452 12.135 11.3452 11.96 10.7252 11.61C10.1152 11.26 9.63523 10.765 9.28523 10.125C8.93523 9.475 8.76023 8.725 8.76023 7.875C8.76023 7.025 8.93023 6.28 9.27023 5.64C9.61023 5 10.0852 4.51 10.6952 4.17C11.3152 3.82 12.0252 3.645 12.8252 3.645C13.6052 3.645 14.2952 3.815 14.8952 4.155C15.4952 4.495 15.9552 4.965 16.2752 5.565C16.6052 6.155 16.7702 6.825 16.7702 7.575ZM15.3602 7.29C15.3602 6.77 15.2452 6.325 15.0152 5.955C14.7852 5.575 14.4702 5.29 14.0702 5.1C13.6802 4.9 13.2452 4.8 12.7652 4.8C12.0752 4.8 11.4852 5.02 10.9952 5.46C10.5152 5.9 10.2402 6.51 10.1702 7.29H15.3602ZM18.062 7.875C18.062 7.025 18.232 6.285 18.572 5.655C18.912 5.015 19.382 4.52 19.982 4.17C20.592 3.82 21.287 3.645 22.067 3.645C23.077 3.645 23.907 3.89 24.557 4.38C25.217 4.87 25.652 5.55 25.862 6.42H24.392C24.252 5.92 23.977 5.525 23.567 5.235C23.167 4.945 22.667 4.8 22.067 4.8C21.287 4.8 20.657 5.07 20.177 5.61C19.697 6.14 19.457 6.895 19.457 7.875C19.457 8.865 19.697 9.63 20.177 10.17C20.657 10.71 21.287 10.98 22.067 10.98C22.667 10.98 23.167 10.84 23.567 10.56C23.967 10.28 24.242 9.88 24.392 9.36H25.862C25.642 10.2 25.202 10.875 24.542 11.385C23.882 11.885 23.057 12.135 22.067 12.135C21.287 12.135 20.592 11.96 19.982 11.61C19.382 11.26 18.912 10.765 18.572 10.125C18.232 9.485 18.062 8.735 18.062 7.875ZM31.7633 3.63C32.3833 3.63 32.9433 3.765 33.4433 4.035C33.9433 4.295 34.3333 4.69 34.6133 5.22C34.9033 5.75 35.0483 6.395 35.0483 7.155V12H33.6983V7.35C33.6983 6.53 33.4933 5.905 33.0833 5.475C32.6733 5.035 32.1133 4.815 31.4033 4.815C30.6833 4.815 30.1083 5.04 29.6783 5.49C29.2583 5.94 29.0483 6.595 29.0483 7.455V12H27.6833V0.9H29.0483V4.95C29.3183 4.53 29.6883 4.205 30.1583 3.975C30.6383 3.745 31.1733 3.63 31.7633 3.63ZM50.418 1.545L47.388 12H45.858L43.428 3.585L40.908 12L39.393 12.015L36.468 1.545H37.923L40.203 10.41L42.723 1.545H44.253L46.653 10.38L48.948 1.545H50.418ZM51.4018 7.86C51.4018 7.02 51.5718 6.285 51.9118 5.655C52.2518 5.015 52.7168 4.52 53.3068 4.17C53.9068 3.82 54.5718 3.645 55.3018 3.645C56.0218 3.645 56.6468 3.8 57.1768 4.11C57.7068 4.42 58.1018 4.81 58.3618 5.28V3.78H59.7418V12H58.3618V10.47C58.0918 10.95 57.6868 11.35 57.1468 11.67C56.6168 11.98 55.9968 12.135 55.2868 12.135C54.5568 12.135 53.8968 11.955 53.3068 11.595C52.7168 11.235 52.2518 10.73 51.9118 10.08C51.5718 9.43 51.4018 8.69 51.4018 7.86ZM58.3618 7.875C58.3618 7.255 58.2368 6.715 57.9868 6.255C57.7368 5.795 57.3968 5.445 56.9668 5.205C56.5468 4.955 56.0818 4.83 55.5718 4.83C55.0618 4.83 54.5968 4.95 54.1768 5.19C53.7568 5.43 53.4218 5.78 53.1718 6.24C52.9218 6.7 52.7968 7.24 52.7968 7.86C52.7968 8.49 52.9218 9.04 53.1718 9.51C53.4218 9.97 53.7568 10.325 54.1768 10.575C54.5968 10.815 55.0618 10.935 55.5718 10.935C56.0818 10.935 56.5468 10.815 56.9668 10.575C57.3968 10.325 57.7368 9.97 57.9868 9.51C58.2368 9.04 58.3618 8.495 58.3618 7.875ZM65.1086 10.74L67.6586 3.78H69.1136L65.8886 12H64.2986L61.0736 3.78H62.5436L65.1086 10.74ZM77.9568 7.575C77.9568 7.835 77.9418 8.11 77.9118 8.4H71.3418C71.3918 9.21 71.6668 9.845 72.1668 10.305C72.6768 10.755 73.2918 10.98 74.0118 10.98C74.6018 10.98 75.0918 10.845 75.4818 10.575C75.8818 10.295 76.1618 9.925 76.3218 9.465H77.7918C77.5718 10.255 77.1318 10.9 76.4718 11.4C75.8118 11.89 74.9918 12.135 74.0118 12.135C73.2318 12.135 72.5318 11.96 71.9118 11.61C71.3018 11.26 70.8218 10.765 70.4718 10.125C70.1218 9.475 69.9468 8.725 69.9468 7.875C69.9468 7.025 70.1168 6.28 70.4568 5.64C70.7968 5 71.2718 4.51 71.8818 4.17C72.5018 3.82 73.2118 3.645 74.0118 3.645C74.7918 3.645 75.4818 3.815 76.0818 4.155C76.6818 4.495 77.1418 4.965 77.4618 5.565C77.7918 6.155 77.9568 6.825 77.9568 7.575ZM76.5468 7.29C76.5468 6.77 76.4318 6.325 76.2018 5.955C75.9718 5.575 75.6568 5.29 75.2568 5.1C74.8668 4.9 74.4318 4.8 73.9518 4.8C73.2618 4.8 72.6718 5.02 72.1818 5.46C71.7018 5.9 71.4268 6.51 71.3568 7.29H76.5468ZM2.52 23.545V34H1.155V23.545H2.52ZM8.85141 25.63C9.85141 25.63 10.6614 25.935 11.2814 26.545C11.9014 27.145 12.2114 28.015 12.2114 29.155V34H10.8614V29.35C10.8614 28.53 10.6564 27.905 10.2464 27.475C9.83641 27.035 9.27641 26.815 8.56641 26.815C7.84641 26.815 7.27141 27.04 6.84141 27.49C6.42141 27.94 6.21141 28.595 6.21141 29.455V34H4.84641V25.78H6.21141V26.95C6.48141 26.53 6.84641 26.205 7.30641 25.975C7.77641 25.745 8.29141 25.63 8.85141 25.63ZM18.4461 25.63C19.4461 25.63 20.2561 25.935 20.8761 26.545C21.4961 27.145 21.8061 28.015 21.8061 29.155V34H20.4561V29.35C20.4561 28.53 20.2511 27.905 19.8411 27.475C19.4311 27.035 18.8711 26.815 18.1611 26.815C17.4411 26.815 16.8661 27.04 16.4361 27.49C16.0161 27.94 15.8061 28.595 15.8061 29.455V34H14.4411V25.78H15.8061V26.95C16.0761 26.53 16.4411 26.205 16.9011 25.975C17.3711 25.745 17.8861 25.63 18.4461 25.63ZM27.6209 34.135C26.8509 34.135 26.1509 33.96 25.5209 33.61C24.9009 33.26 24.4109 32.765 24.0509 32.125C23.7009 31.475 23.5259 30.725 23.5259 29.875C23.5259 29.035 23.7059 28.295 24.0659 27.655C24.4359 27.005 24.9359 26.51 25.5659 26.17C26.1959 25.82 26.9009 25.645 27.6809 25.645C28.4609 25.645 29.1659 25.82 29.7959 26.17C30.4259 26.51 30.9209 27 31.2809 27.64C31.6509 28.28 31.8359 29.025 31.8359 29.875C31.8359 30.725 31.6459 31.475 31.2659 32.125C30.8959 32.765 30.3909 33.26 29.7509 33.61C29.1109 33.96 28.4009 34.135 27.6209 34.135ZM27.6209 32.935C28.1109 32.935 28.5709 32.82 29.0009 32.59C29.4309 32.36 29.7759 32.015 30.0359 31.555C30.3059 31.095 30.4409 30.535 30.4409 29.875C30.4409 29.215 30.3109 28.655 30.0509 28.195C29.7909 27.735 29.4509 27.395 29.0309 27.175C28.6109 26.945 28.1559 26.83 27.6659 26.83C27.1659 26.83 26.7059 26.945 26.2859 27.175C25.8759 27.395 25.5459 27.735 25.2959 28.195C25.0459 28.655 24.9209 29.215 24.9209 29.875C24.9209 30.545 25.0409 31.11 25.2809 31.57C25.5309 32.03 25.8609 32.375 26.2709 32.605C26.6809 32.825 27.1309 32.935 27.6209 32.935ZM36.6906 32.74L39.2406 25.78H40.6956L37.4706 34H35.8806L32.6556 25.78H34.1256L36.6906 32.74ZM41.5288 29.86C41.5288 29.02 41.6988 28.285 42.0388 27.655C42.3788 27.015 42.8438 26.52 43.4338 26.17C44.0338 25.82 44.6988 25.645 45.4288 25.645C46.1488 25.645 46.7738 25.8 47.3038 26.11C47.8338 26.42 48.2288 26.81 48.4888 27.28V25.78H49.8688V34H48.4888V32.47C48.2188 32.95 47.8138 33.35 47.2738 33.67C46.7438 33.98 46.1238 34.135 45.4138 34.135C44.6838 34.135 44.0238 33.955 43.4338 33.595C42.8438 33.235 42.3788 32.73 42.0388 32.08C41.6988 31.43 41.5288 30.69 41.5288 29.86ZM48.4888 29.875C48.4888 29.255 48.3638 28.715 48.1138 28.255C47.8638 27.795 47.5238 27.445 47.0938 27.205C46.6738 26.955 46.2088 26.83 45.6988 26.83C45.1888 26.83 44.7238 26.95 44.3038 27.19C43.8838 27.43 43.5488 27.78 43.2988 28.24C43.0488 28.7 42.9238 29.24 42.9238 29.86C42.9238 30.49 43.0488 31.04 43.2988 31.51C43.5488 31.97 43.8838 32.325 44.3038 32.575C44.7238 32.815 45.1888 32.935 45.6988 32.935C46.2088 32.935 46.6738 32.815 47.0938 32.575C47.5238 32.325 47.8638 31.97 48.1138 31.51C48.3638 31.04 48.4888 30.495 48.4888 29.875ZM53.8405 26.905V31.75C53.8405 32.15 53.9255 32.435 54.0955 32.605C54.2655 32.765 54.5605 32.845 54.9805 32.845H55.9855V34H54.7555C53.9955 34 53.4255 33.825 53.0455 33.475C52.6655 33.125 52.4755 32.55 52.4755 31.75V26.905H51.4105V25.78H52.4755V23.71H53.8405V25.78H55.9855V26.905H53.8405ZM58.3444 24.445C58.0844 24.445 57.8644 24.355 57.6844 24.175C57.5044 23.995 57.4144 23.775 57.4144 23.515C57.4144 23.255 57.5044 23.035 57.6844 22.855C57.8644 22.675 58.0844 22.585 58.3444 22.585C58.5944 22.585 58.8044 22.675 58.9744 22.855C59.1544 23.035 59.2444 23.255 59.2444 23.515C59.2444 23.775 59.1544 23.995 58.9744 24.175C58.8044 24.355 58.5944 24.445 58.3444 24.445ZM59.0044 25.78V34H57.6394V25.78H59.0044ZM64.9158 34.135C64.1458 34.135 63.4458 33.96 62.8158 33.61C62.1958 33.26 61.7058 32.765 61.3458 32.125C60.9958 31.475 60.8208 30.725 60.8208 29.875C60.8208 29.035 61.0008 28.295 61.3608 27.655C61.7308 27.005 62.2308 26.51 62.8608 26.17C63.4908 25.82 64.1958 25.645 64.9758 25.645C65.7558 25.645 66.4608 25.82 67.0908 26.17C67.7208 26.51 68.2158 27 68.5758 27.64C68.9458 28.28 69.1308 29.025 69.1308 29.875C69.1308 30.725 68.9408 31.475 68.5608 32.125C68.1908 32.765 67.6858 33.26 67.0458 33.61C66.4058 33.96 65.6958 34.135 64.9158 34.135ZM64.9158 32.935C65.4058 32.935 65.8658 32.82 66.2958 32.59C66.7258 32.36 67.0708 32.015 67.3308 31.555C67.6008 31.095 67.7358 30.535 67.7358 29.875C67.7358 29.215 67.6058 28.655 67.3458 28.195C67.0858 27.735 66.7458 27.395 66.3258 27.175C65.9058 26.945 65.4508 26.83 64.9608 26.83C64.4608 26.83 64.0008 26.945 63.5808 27.175C63.1708 27.395 62.8408 27.735 62.5908 28.195C62.3408 28.655 62.2158 29.215 62.2158 29.875C62.2158 30.545 62.3358 31.11 62.5758 31.57C62.8258 32.03 63.1558 32.375 63.5658 32.605C63.9758 32.825 64.4258 32.935 64.9158 32.935ZM74.9305 25.63C75.9305 25.63 76.7405 25.935 77.3605 26.545C77.9805 27.145 78.2905 28.015 78.2905 29.155V34H76.9405V29.35C76.9405 28.53 76.7355 27.905 76.3255 27.475C75.9155 27.035 75.3555 26.815 74.6455 26.815C73.9255 26.815 73.3505 27.04 72.9205 27.49C72.5005 27.94 72.2905 28.595 72.2905 29.455V34H70.9255V25.78H72.2905V26.95C72.5605 26.53 72.9255 26.205 73.3855 25.975C73.8555 25.745 74.3705 25.63 74.9305 25.63ZM83.4302 34.135C82.8002 34.135 82.2352 34.03 81.7352 33.82C81.2352 33.6 80.8402 33.3 80.5502 32.92C80.2602 32.53 80.1002 32.085 80.0702 31.585H81.4802C81.5202 31.995 81.7102 32.33 82.0502 32.59C82.4002 32.85 82.8552 32.98 83.4152 32.98C83.9352 32.98 84.3452 32.865 84.6452 32.635C84.9452 32.405 85.0952 32.115 85.0952 31.765C85.0952 31.405 84.9352 31.14 84.6152 30.97C84.2952 30.79 83.8002 30.615 83.1302 30.445C82.5202 30.285 82.0202 30.125 81.6302 29.965C81.2502 29.795 80.9202 29.55 80.6402 29.23C80.3702 28.9 80.2352 28.47 80.2352 27.94C80.2352 27.52 80.3602 27.135 80.6102 26.785C80.8602 26.435 81.2152 26.16 81.6752 25.96C82.1352 25.75 82.6602 25.645 83.2502 25.645C84.1602 25.645 84.8952 25.875 85.4552 26.335C86.0152 26.795 86.3152 27.425 86.3552 28.225H84.9902C84.9602 27.795 84.7852 27.45 84.4652 27.19C84.1552 26.93 83.7352 26.8 83.2052 26.8C82.7152 26.8 82.3252 26.905 82.0352 27.115C81.7452 27.325 81.6002 27.6 81.6002 27.94C81.6002 28.21 81.6852 28.435 81.8552 28.615C82.0352 28.785 82.2552 28.925 82.5152 29.035C82.7852 29.135 83.1552 29.25 83.6252 29.38C84.2152 29.54 84.6952 29.7 85.0652 29.86C85.4352 30.01 85.7502 30.24 86.0102 30.55C86.2802 30.86 86.4202 31.265 86.4302 31.765C86.4302 32.215 86.3052 32.62 86.0552 32.98C85.8052 33.34 85.4502 33.625 84.9902 33.835C84.5402 34.035 84.0202 34.135 83.4302 34.135Z" fill="#566A7F"/>
</svg>
