<svg width="248" height="88" viewBox="0 0 248 88" fill="none" xmlns="http://www.w3.org/2000/svg">
<g clip-path="url(#clip0_35_414)">
<path d="M86.7571 34.9219V42.495H79.802V34.9219H76.5V52.9996H79.802V45.6724H86.7571V52.9996H90.0591V34.9219H86.7571Z" fill="#232323"/>
<path d="M100.627 47.1556C100.627 47.8801 100.339 48.5749 99.8267 49.0872C99.3144 49.5995 98.6196 49.8873 97.8951 49.8873C97.1706 49.8873 96.4758 49.5995 95.9635 49.0872C95.4512 48.5749 95.1634 47.8801 95.1634 47.1556V39.4126H92.0313V47.1556C92.0313 48.7093 92.6485 50.1993 93.7471 51.298C94.8457 52.3966 96.3358 53.0138 97.8895 53.0138C99.4431 53.0138 100.933 52.3966 102.032 51.298C103.13 50.1993 103.748 48.7093 103.748 47.1556V39.4126H100.627V47.1556Z" fill="#232323"/>
<path d="M123.834 40.2106C123.834 38.6235 124.884 38.1204 126.034 38.1204C126.961 38.1204 128.186 38.8257 128.987 39.6816L131.038 37.2645C130.014 35.8797 127.937 34.9219 126.236 34.9219C122.839 34.9219 120.381 36.9118 120.381 40.2106C120.381 46.3309 127.862 44.3895 127.862 47.8145C127.862 48.8709 126.837 49.8044 125.662 49.8044C123.81 49.8044 123.209 48.8984 122.358 47.9407L120.082 50.3076C121.538 52.0953 123.334 53.0029 125.486 53.0029C128.713 53.0029 131.31 50.9887 131.31 47.8403C131.31 41.0454 123.829 43.1567 123.829 40.2106" fill="#232323"/>
<path d="M170.114 50.1116C168.263 50.1116 167.737 49.3108 167.737 48.0844V42.6566H170.614V39.9062H167.737V36.2774L164.561 37.7027V48.7591C164.561 51.5871 166.513 53.0124 169.189 53.0124C169.608 53.02 170.028 52.9864 170.441 52.9121L171.216 50.0598C170.866 50.0841 170.465 50.1083 170.114 50.1083" fill="#232323"/>
<path d="M112.549 39.5039C110.998 39.5039 109.916 39.9537 108.869 40.981V35.0306H105.732V46.0594C105.732 50.1881 108.717 53.0161 112.071 53.0161C115.792 53.0161 119.065 50.138 119.065 46.2616C119.065 42.4338 116.052 39.5055 112.549 39.5055V39.5039ZM112.53 49.8597C111.826 49.8597 111.138 49.651 110.553 49.2599C109.967 48.8688 109.511 48.3129 109.242 47.6625C108.972 47.0121 108.902 46.2965 109.039 45.6061C109.177 44.9156 109.516 44.2815 110.013 43.7837C110.511 43.2859 111.145 42.9469 111.836 42.8096C112.526 42.6723 113.242 42.7427 113.892 43.0121C114.542 43.2815 115.098 43.7377 115.489 44.323C115.881 44.9084 116.089 45.5965 116.089 46.3005C116.089 47.2444 115.714 48.1497 115.047 48.8172C114.379 49.4847 113.474 49.8597 112.53 49.8597Z" fill="#232323"/>
<path d="M146.611 46.0959C146.611 42.2131 143.345 39.3414 139.617 39.3414C136.264 39.3414 133.279 42.1694 133.279 46.2981V57.3334H136.416V51.3749C137.461 52.4006 138.545 52.852 140.095 52.852C143.597 52.852 146.61 49.9253 146.61 46.0959H146.611ZM143.641 46.0571C143.641 46.761 143.432 47.4492 143.041 48.0345C142.65 48.6198 142.094 49.076 141.444 49.3454C140.793 49.6148 140.078 49.6853 139.387 49.5479C138.697 49.4106 138.063 49.0716 137.565 48.5738C137.067 48.0761 136.728 47.4419 136.591 46.7514C136.454 46.061 136.524 45.3454 136.793 44.695C137.063 44.0446 137.519 43.4888 138.104 43.0977C138.69 42.7066 139.378 42.4978 140.082 42.4978C141.026 42.4978 141.931 42.8728 142.599 43.5403C143.266 44.2078 143.641 45.1131 143.641 46.0571Z" fill="#232323"/>
<path d="M156.714 39.2912V36.172C157.126 35.9795 157.475 35.6738 157.72 35.2906C157.966 34.9073 158.097 34.4623 158.099 34.0073V33.9345C158.097 33.2987 157.844 32.6895 157.394 32.2399C156.945 31.7903 156.335 31.537 155.7 31.5353H155.627C154.991 31.537 154.382 31.7903 153.932 32.2399C153.483 32.6895 153.229 33.2987 153.227 33.9345V34.0073C153.229 34.4623 153.361 34.9073 153.606 35.2906C153.851 35.6738 154.2 35.9795 154.612 36.172V39.2912C153.427 39.4724 152.311 39.9636 151.377 40.7149L142.812 34.051C142.873 33.8312 142.905 33.6045 142.909 33.3764C142.91 32.8411 142.751 32.3176 142.455 31.8721C142.158 31.4266 141.735 31.0792 141.241 30.8738C140.747 30.6683 140.203 30.6141 139.677 30.7179C139.152 30.8217 138.67 31.0789 138.291 31.457C137.912 31.8351 137.653 32.317 137.548 32.8419C137.443 33.3669 137.496 33.9111 137.7 34.406C137.905 34.9008 138.251 35.3239 138.696 35.6218C139.141 35.9198 139.664 36.0792 140.199 36.0798C140.669 36.078 141.131 35.9525 141.537 35.7158L149.958 42.2713C149.199 43.4156 148.804 44.762 148.822 46.1347C148.841 47.5074 149.274 48.8426 150.063 49.9657L147.5 52.5284C147.295 52.4629 147.08 52.428 146.865 52.4248C146.425 52.4248 145.994 52.5553 145.629 52.7997C145.263 53.0442 144.978 53.3916 144.809 53.7981C144.641 54.2046 144.597 54.6518 144.683 55.0834C144.769 55.5149 144.98 55.9112 145.292 56.2224C145.603 56.5335 145.999 56.7453 146.431 56.8312C146.862 56.917 147.309 56.8729 147.716 56.7046C148.122 56.5362 148.47 56.2511 148.714 55.8853C148.959 55.5194 149.089 55.0893 149.089 54.6494C149.086 54.4335 149.051 54.2192 148.986 54.0136L151.521 51.4784C152.348 52.1105 153.309 52.5452 154.33 52.7492C155.352 52.9533 156.406 52.9213 157.413 52.6558C158.42 52.3903 159.353 51.8982 160.14 51.2171C160.928 50.536 161.55 49.6839 161.958 48.726C162.366 47.768 162.55 46.7294 162.496 45.6894C162.441 44.6495 162.15 43.6357 161.644 42.7256C161.138 41.8154 160.431 41.0328 159.577 40.4376C158.722 39.8424 157.743 39.4503 156.714 39.2912ZM155.664 49.5516C154.97 49.5516 154.292 49.3458 153.715 48.9604C153.138 48.575 152.689 48.0272 152.423 47.3863C152.158 46.7454 152.089 46.0402 152.224 45.3598C152.359 44.6794 152.693 44.0544 153.184 43.5639C153.674 43.0734 154.299 42.7393 154.98 42.604C155.66 42.4687 156.365 42.5381 157.006 42.8036C157.647 43.0691 158.195 43.5186 158.58 44.0954C158.966 44.6722 159.171 45.3504 159.171 46.0441C159.171 46.9743 158.802 47.8665 158.144 48.5242C157.486 49.182 156.594 49.5516 155.664 49.5516Z" fill="#232323"/>
</g>
<defs>
<clipPath id="clip0_35_414">
<rect width="95" height="40" fill="white" transform="translate(76.5 24)"/>
</clipPath>
</defs>
</svg>
